<?xml version="1.0" encoding="UTF-8"?>
<!DOCTYPE svg  PUBLIC '-//W3C//DTD SVG 1.1//EN'  'http://www.w3.org/Graphics/SVG/1.1/DTD/svg11.dtd'>
<svg enable-background="new 0 0 300 43.541" version="1.1" viewBox="0 0 300 43.541" xml:space="preserve" xmlns="http://www.w3.org/2000/svg">
	<g fill="#fff">
		<path d="m60.888 14.541h-5.093c-0.935 0-1.713-0.789-1.713-1.713 0-0.946 0.778-1.735 1.713-1.735h13.994c0.935 0 1.713 0.79 1.713 1.735 0 0.924-0.778 1.713-1.713 1.713h-5.138v15.954c-0.067 1.035-0.946 1.825-1.982 1.758-0.958-0.046-1.735-0.812-1.781-1.758v-15.954z"/>
		<path d="m86.949 30.517c-0.034 1.013-0.913 1.78-1.927 1.735-0.947-0.046-1.69-0.789-1.735-1.735v-0.812c-1.014 1.511-2.501 2.794-4.98 2.794-3.571 0-5.645-2.411-5.645-6.106v-8.45c-0.045-1.014 0.721-1.893 1.735-1.916 1.002-0.09 1.859 0.699 1.904 1.712v0.203 7.345c0 2.457 1.251 3.877 3.415 3.877 2.151 0 3.571-1.465 3.571-3.944v-7.278c-0.044-1.014 0.721-1.893 1.735-1.916 1.014-0.045 1.893 0.699 1.927 1.712v0.203 12.576z"/>
		<path d="m92.244 27.768v-8.36h-0.608c-0.878 0-1.555-0.722-1.555-1.555 0-0.879 0.699-1.556 1.555-1.556h0.608v-2.726c0.045-1.037 0.901-1.78 1.904-1.735 0.946 0.068 1.701 0.812 1.736 1.735v2.704h2.85c0.879 0 1.566 0.699 1.566 1.533 0 0.878-0.71 1.6-1.566 1.6h-2.85v7.774c0 1.442 0.721 2.028 1.949 2.028 0.304 0 0.597-0.045 0.901-0.113 0.834 0 1.532 0.698 1.532 1.533 0 0.63-0.394 1.172-0.958 1.419-0.8 0.271-1.645 0.405-2.501 0.405-2.659 0-4.563-1.194-4.563-4.686z"/>
		<path d="m102.55 24.319v-0.045c-0.022-4.709 3.741-8.472 8.417-8.518 4.676 0 8.484 3.785 8.507 8.473v0.022c-0.022 4.62-3.763 8.315-8.315 8.293h-0.191c-4.552 0.134-8.314-3.471-8.417-8-1e-3 -0.09-1e-3 -0.157-1e-3 -0.225zm13.296 0v-0.045c0-2.816-2.028-5.115-4.89-5.115-2.884 0-4.766 2.299-4.766 5.07v0.022c0 2.771 2.005 5.07 4.845 5.07 2.929 1e-3 4.811-2.253 4.811-5.002z"/>
		<path d="m123.2 17.943c0-1.014 0.766-1.803 1.757-1.848h0.045c1.014 0 1.825 0.833 1.848 1.803v1.667c0.833-2.005 2.412-3.515 4.012-3.515 0.878-0.067 1.712 0.631 1.757 1.6v0.248c0.045 0.834-0.586 1.6-1.442 1.713-2.592 0.45-4.349 2.434-4.349 6.196v4.71c0 1.013-0.834 1.803-1.825 1.803-0.969 0-1.803-0.79-1.803-1.78v-12.597z"/>
		<path d="m135.54 11.994c0-1.059 0.902-1.78 2.074-1.78 1.194 0 2.073 0.721 2.073 1.78v0.226c0 1.037-0.879 1.78-2.073 1.78-1.172 0-2.074-0.744-2.074-1.78v-0.226zm0.271 5.949c-0.023-1.014 0.767-1.848 1.735-1.848h0.068c1.036 0 1.825 0.811 1.847 1.803v12.596c-0.045 1.035-0.901 1.803-1.916 1.735-0.924-0.068-1.667-0.789-1.735-1.713v-12.573z"/>
		<path d="m143.16 27.609v-0.09c0-3.426 2.681-5.092 6.58-5.092 1.42-0.045 2.885 0.203 4.259 0.653v-0.405c0-2.254-1.374-3.448-3.944-3.448-1.194-0.022-2.411 0.226-3.538 0.631-0.18 0.068-0.383 0.091-0.541 0.091-0.833 0-1.532-0.677-1.532-1.51 0-0.655 0.406-1.217 1.014-1.465 1.623-0.631 3.357-0.947 5.115-0.924 2.388 0 4.146 0.631 5.274 1.758 1.104 1.171 1.712 2.861 1.712 4.935v7.841c0 0.969-0.789 1.735-1.758 1.758h-0.045c-0.879 0.066-1.712-0.631-1.758-1.532v-0.608c-1.284 1.532-3.222 2.389-5.228 2.298-2.974-1e-3 -5.61-1.735-5.61-4.891zm10.885-1.171v-1.059c-1.172-0.451-2.389-0.652-3.607-0.652-2.343 0-3.718 0.99-3.718 2.681v0.045c0 1.51 1.352 2.389 3.11 2.389 2.366-0.024 4.215-1.399 4.215-3.404z"/>
		<path d="m162.09 11.858c0-0.991 0.79-1.803 1.758-1.803h0.046c0.992-0.022 1.825 0.79 1.825 1.78v18.68c0 1.013-0.833 1.825-1.825 1.825-1.014 0-1.804-0.813-1.804-1.825v-18.657z"/>
		<path d="m170.92 12.963c0-1.014 0.788-1.848 1.78-1.848h7.616c2.637 0 4.71 0.789 6.062 2.096 1.172 1.239 1.803 2.884 1.735 4.573v0.024c0 3.402-1.961 5.454-4.777 6.286l4.012 5.116c0.383 0.383 0.586 0.901 0.586 1.42 0 0.945-0.789 1.734-1.758 1.712-0.699 0-1.397-0.338-1.781-0.969l-5.114-6.535h-4.688v5.656c-0.045 1.015-0.924 1.803-1.915 1.735-0.97-0.068-1.735-0.812-1.758-1.758v-17.508zm9.08 8.585c2.637 0 4.35-1.397 4.35-3.538v-0.067c0-2.253-1.645-3.493-4.394-3.493h-5.363v7.098h5.407z"/>
		<path d="m199.2 32.522c-4.597 0-8.135-3.313-8.135-8.248v-0.045c0-4.574 3.199-8.292 7.752-8.292 5.069 0 7.571 4.168 7.571 7.818 0 0.971-0.744 1.713-1.668 1.758h-0.067-9.981c0.382 2.569 2.229 4.057 4.573 4.057 1.375 0 2.727-0.474 3.764-1.375 0.247-0.226 0.585-0.36 0.924-0.338 0.788-0.022 1.464 0.586 1.464 1.375v0.09c0 0.449-0.18 0.834-0.473 1.127-1.577 1.419-3.583 2.141-5.724 2.073zm3.628-9.442c-0.248-2.321-1.622-4.146-4.057-4.146-2.23 0-3.807 1.713-4.123 4.146h8.18z"/>
		<path d="m210.13 17.943c-0.045-1.014 0.744-1.848 1.758-1.848h0.045c0.992 0 1.78 0.811 1.825 1.803v1.036c1.172-1.667 2.817-2.997 5.408-2.997 3.718 0 7.392 2.974 7.392 8.27v0.045c0 5.25-3.628 8.202-7.392 8.202-2.186 0.045-4.17-0.991-5.408-2.771v5.611c0 1.014-0.833 1.825-1.825 1.825-1.014 0-1.803-0.767-1.803-1.781v-17.395zm12.664 6.331v-0.045c0-3.109-2.05-5.115-4.507-5.115-2.523 0-4.642 2.051-4.642 5.115v0.022c0 3.042 2.163 5.07 4.642 5.07 2.457 1e-3 4.507-1.914 4.507-5.047z"/>
		<path d="m244.41 30.517c-0.046 1.013-0.925 1.78-1.938 1.735-0.946-0.046-1.713-0.789-1.758-1.735v-0.812c-0.991 1.511-2.456 2.794-4.935 2.794-3.605 0-5.656-2.411-5.656-6.106v-8.45c-0.067-1.014 0.72-1.893 1.735-1.916 0.991-0.045 1.825 0.744 1.893 1.757v0.181 7.347c0 2.455 1.239 3.853 3.402 3.853s3.561-1.42 3.561-3.922v-7.278c-0.045-1.037 0.767-1.87 1.758-1.938 1.013-0.045 1.892 0.744 1.938 1.757v0.181 12.552z"/>
		<path d="m248.96 11.858c-0.023-0.991 0.766-1.78 1.734-1.803h0.068c1.014-0.022 1.802 0.767 1.848 1.758v0.045 7.098c1.172-1.667 2.816-2.974 5.386-2.974 3.763 0 7.391 2.952 7.391 8.247v0.045c0 5.273-3.628 8.225-7.391 8.225-2.118 0.046-4.169-0.99-5.386-2.771v0.812c-0.068 1.014-0.925 1.78-1.938 1.735-0.924-0.045-1.667-0.789-1.712-1.735v-18.682zm12.73 12.416v-0.045c0-3.109-2.095-5.115-4.573-5.115-2.479 0-4.643 2.051-4.643 5.115v0.022c0 3.042 2.187 5.07 4.643 5.07 2.479 1e-3 4.573-1.914 4.573-5.047z"/>
		<path d="m269.35 11.858c0-0.991 0.79-1.803 1.758-1.803h0.022c1.016 0 1.849 0.79 1.849 1.78v18.658c0 1.015-0.811 1.825-1.849 1.825-0.99 0-1.78-0.79-1.78-1.803v-18.657z"/>
		<path d="m277.67 11.994c0-1.059 0.924-1.78 2.096-1.78s2.096 0.698 2.096 1.78v0.226c0 1.037-0.924 1.78-2.096 1.78s-2.096-0.744-2.096-1.78v-0.226zm0.293 5.949c-0.045-1.014 0.766-1.803 1.758-1.848h0.045c1.014 0 1.848 0.833 1.848 1.803v0.045 12.574c-0.09 1.013-0.924 1.78-1.938 1.735-0.925-0.046-1.668-0.789-1.713-1.735v-12.574z"/>
		<path d="m285.46 24.319v-0.045c-0.045-4.506 3.56-8.247 8.112-8.292h0.157c2.05-0.09 4.034 0.631 5.565 1.983 0.384 0.315 0.586 0.767 0.586 1.262 0 0.901-0.742 1.646-1.666 1.646h-0.023c-0.383 0-0.766-0.136-1.059-0.384-0.946-0.878-2.186-1.329-3.426-1.329-2.658 0-4.597 2.299-4.597 5.07v0.022c0 2.839 1.938 5.07 4.755 5.07 1.328 0 2.569-0.519 3.538-1.42 0.608-0.586 1.577-0.563 2.163 0.045 0.293 0.293 0.451 0.722 0.428 1.149 0 0.451-0.157 0.856-0.473 1.149-1.555 1.51-3.65 2.299-5.814 2.23-4.461 0.068-8.158-3.515-8.225-7.954-0.021-0.043-0.021-0.134-0.021-0.202z"/>
	</g>
		<path d="m21.486 42.999 15.459-8.899c1.239-0.722 2.005-2.051 2.005-3.47v-17.757c0-1.42-0.767-2.749-2.005-3.492l-15.459-8.857c-1.239-0.699-2.783-0.699-4.022 0l-15.424 8.856c-1.263 0.744-2.04 2.073-2.04 3.493v17.757c0 1.419 0.777 2.748 2.006 3.47l15.458 8.899c1.24 0.723 2.784 0.723 4.022 0z" fill="#28BAA2"/>
		<path d="m26.14 23.756-1.712-1.374-4.349 3.312 5.464 5.431-1.453 1.329-15.628-14.961 9.104-4.62 2.017 1.713 4.293-2.344 6.568 8.045-4.304 3.469z" fill="#fff"/>
</svg>
